<?xml version="1.0" encoding="UTF-8" standalone="no"?>
<!-- Created with Inkscape (http://www.inkscape.org/) -->

<svg
   width="2048"
   height="256"
   viewBox="0 0 541.86666 67.733336"
   version="1.1"
   id="svg5"
   sodipodi:docname="header.svg"
   inkscape:export-filename="C:\Users\johnb\Proyectos\SitioWebMatematicas\images\header.png"
   inkscape:export-xdpi="96"
   inkscape:export-ydpi="96"
   inkscape:version="1.1.1 (3bf5ae0d25, 2021-09-20)"
   xmlns:inkscape="http://www.inkscape.org/namespaces/inkscape"
   xmlns:sodipodi="http://sodipodi.sourceforge.net/DTD/sodipodi-0.dtd"
   xmlns="http://www.w3.org/2000/svg"
   xmlns:svg="http://www.w3.org/2000/svg">
  <sodipodi:namedview
     id="namedview7"
     pagecolor="#ffffff"
     bordercolor="#666666"
     borderopacity="1.0"
     inkscape:pageshadow="2"
     inkscape:pageopacity="0.0"
     inkscape:pagecheckerboard="0"
     inkscape:document-units="px"
     showgrid="false"
     units="px"
     inkscape:zoom="0.41172864"
     inkscape:cx="963.01292"
     inkscape:cy="142.08387"
     inkscape:window-width="1366"
     inkscape:window-height="705"
     inkscape:window-x="-8"
     inkscape:window-y="-8"
     inkscape:window-maximized="1"
     inkscape:current-layer="layer1"
     width="2048px" />
  <defs
     id="defs2" />
  <g
     inkscape:label="Capa 1"
     inkscape:groupmode="layer"
     id="layer1">
    <rect
       style="fill:#00167c;fill-opacity:1;fill-rule:evenodd;stroke-width:1.07614"
       id="rect65"
       width="541.8667"
       height="67.733337"
       x="0"
       y="0" />
    <text
       xml:space="preserve"
       style="font-style:normal;font-weight:normal;font-size:49.8717px;line-height:1.25;font-family:sans-serif;fill:#1018b3;fill-opacity:1;stroke:none;stroke-width:0.584434"
       x="258.8652"
       y="173.61404"
       id="text5276-5"
       transform="rotate(-30)"><tspan
         sodipodi:role="line"
         id="tspan5274-5"
         style="font-style:normal;font-variant:normal;font-weight:bold;font-stretch:normal;font-size:49.8717px;font-family:sans-serif;-inkscape-font-specification:'sans-serif Bold';fill:#1018b3;fill-opacity:1;stroke-width:0.584434"
         x="258.8652"
         y="173.61404">x</tspan></text>
    <text
       xml:space="preserve"
       style="font-style:normal;font-weight:normal;font-size:49.8717px;line-height:1.25;font-family:sans-serif;fill:#1018b3;fill-opacity:1;stroke:none;stroke-width:0.584434"
       x="146.07936"
       y="149.96634"
       id="text5276-5-5"
       transform="rotate(-30)"><tspan
         sodipodi:role="line"
         id="tspan5274-5-4"
         style="font-style:normal;font-variant:normal;font-weight:bold;font-stretch:normal;font-size:49.8717px;font-family:sans-serif;-inkscape-font-specification:'sans-serif Bold';fill:#1018b3;fill-opacity:1;stroke-width:0.584434"
         x="146.07936"
         y="149.96634">x</tspan></text>
    <text
       xml:space="preserve"
       style="font-style:normal;font-weight:normal;font-size:49.8717px;line-height:1.25;font-family:sans-serif;fill:#1018b3;fill-opacity:1;stroke:none;stroke-width:0.584434"
       x="24.191628"
       y="30.20155"
       id="text5276-5-5-5"
       transform="rotate(-30)"><tspan
         sodipodi:role="line"
         id="tspan5274-5-4-2"
         style="font-style:normal;font-variant:normal;font-weight:bold;font-stretch:normal;font-size:49.8717px;font-family:sans-serif;-inkscape-font-specification:'sans-serif Bold';fill:#1018b3;fill-opacity:1;stroke-width:0.584434"
         x="24.191628"
         y="30.20155">x</tspan></text>
    <text
       xml:space="preserve"
       style="font-style:normal;font-weight:normal;font-size:49.8717px;line-height:1.25;font-family:sans-serif;fill:#1018b3;fill-opacity:1;stroke:none;stroke-width:0.584434"
       x="234.90163"
       y="212.53717"
       id="text5276-5-5-3"
       transform="rotate(-30)"><tspan
         sodipodi:role="line"
         id="tspan5274-5-4-7"
         style="font-style:normal;font-variant:normal;font-weight:bold;font-stretch:normal;font-size:49.8717px;font-family:sans-serif;-inkscape-font-specification:'sans-serif Bold';fill:#1018b3;fill-opacity:1;stroke-width:0.584434"
         x="234.90163"
         y="212.53717">x</tspan></text>
    <text
       xml:space="preserve"
       style="font-style:normal;font-weight:normal;font-size:49.8717px;line-height:1.25;font-family:sans-serif;fill:#1018b3;fill-opacity:1;stroke:none;stroke-width:0.584434"
       x="387.21866"
       y="302.82928"
       id="text5276-5-5-3-3"
       transform="rotate(-30)"><tspan
         sodipodi:role="line"
         id="tspan5274-5-4-7-0"
         style="font-style:normal;font-variant:normal;font-weight:bold;font-stretch:normal;font-size:49.8717px;font-family:sans-serif;-inkscape-font-specification:'sans-serif Bold';fill:#1018b3;fill-opacity:1;stroke-width:0.584434"
         x="387.21866"
         y="302.82928">x</tspan></text>
    <path
       style="fill:#1018b3;fill-opacity:1;stroke-width:0.449844"
       id="path13057"
       d="m 122.25665,-9.6768869 c -1.17884,-0.07408 -2.31537,0.3002704 -3.40839,0.6975643 -1.1003,0.4065222 -2.11139,0.975429 -3.03642,1.6916114 -2.60737,2.444864 -4.23584,5.7646179 -5.59876,9.042299 -0.71784,1.3671041 -0.79229,2.9466855 -0.66326,4.4562596 0.0454,1.5711801 0.59206,3.0355492 1.23592,4.4475526 0.80291,1.635486 1.75048,3.186616 2.76577,4.696927 1.32309,1.943155 2.78205,3.767505 4.32247,5.538707 1.42294,1.516397 2.93071,2.955351 4.46118,4.36302 1.51486,1.443475 2.9763,2.941626 4.49238,4.383494 1.1282,1.078977 2.29072,2.109121 3.27467,3.325228 0.92739,0.998721 1.72125,2.104317 2.46248,3.244697 0.73216,1.090655 1.38459,2.214235 1.89799,3.422746 0.32638,1.079439 0.43482,2.212174 0.52226,3.333165 0.11579,1.24086 -0.32117,2.337115 -0.75137,3.468437 -1.06051,2.051525 -3.09863,5.543822 2.12408,-3.609 0.11153,-0.195571 -0.22541,0.389884 -0.34366,0.581487 -0.35965,0.582769 -0.32534,0.512033 -0.72707,1.043462 -0.60536,0.802022 -1.27882,1.536294 -2.05876,2.16921 -0.32878,0.257875 -0.68142,0.481835 -1.03321,0.706192 0,0 -2.6905,6.092245 -2.6905,6.092245 v 0 c 0.36985,-0.221679 0.74053,-0.442546 1.09553,-0.687785 0.85056,-0.608415 1.61839,-1.30865 2.22811,-2.165923 0.45122,-0.519224 0.83148,-1.023303 1.17589,-1.620267 1.44976,-2.512794 3.10603,-4.981901 4.2648,-7.667381 0.43693,-1.203016 0.72243,-2.408256 0.55341,-3.698783 -0.12957,-1.161132 -0.24883,-2.34334 -0.71866,-3.426569 -0.57014,-1.216358 -1.24082,-2.380038 -1.98576,-3.49827 -0.79127,-1.126689 -1.61798,-2.229509 -2.52661,-3.265124 -1.02631,-1.204923 -2.251,-2.189969 -3.4064,-3.265619 -1.53652,-1.422017 -2.97862,-2.944605 -4.49967,-4.383719 -1.51351,-1.392985 -3.00351,-2.812945 -4.40892,-4.315394 -1.52592,-1.730205 -3.00447,-3.5012 -4.27023,-5.4353597 -0.92773,-1.5592554 -1.79992,-3.1573355 -2.59097,-4.7903223 -0.58957,-1.3710434 -1.04093,-2.7784685 -1.05495,-4.28880057 -0.0246,-1.51289901 0.22119,-2.96416043 0.93431,-4.31817353 0.92458,-2.0895098 2.81008,-5.208042 -2.39164,3.86291586 -0.12224,0.21313367 0.2672,-0.412776 0.41284,-0.61063067 0.14486,-0.19679 0.29963,-0.38631 0.45806,-0.57235567 0.15029,-0.176424 0.31161,-0.34297502 0.46741,-0.51447072 0.84235,-0.7468357 1.79256,-1.2980354 2.829,-1.7397701 0.94762,-0.3993317 1.93079,-0.7837784 2.97536,-0.7791434 0,0 3.21122,-5.9143193 3.21122,-5.9143193 z" />
    <path
       style="fill:#1018b3;fill-opacity:1;stroke-width:0.449844"
       id="path13057-4"
       d="m 269.1802,33.768669 c -1.17884,-0.0741 -2.31534,0.300268 -3.40838,0.697565 -1.10029,0.406522 -2.11138,0.975427 -3.03642,1.691609 -2.60738,2.444867 -4.23584,5.764621 -5.59876,9.042303 -0.71785,1.367109 -0.79227,2.946686 -0.66326,4.456261 0.0455,1.571177 0.59207,3.035547 1.23592,4.447551 0.8029,1.635486 1.75047,3.186615 2.76576,4.696927 1.32309,1.943155 2.78207,3.767507 4.32248,5.538708 1.42295,1.516398 2.93073,2.955357 4.46119,4.36302 1.51486,1.443474 2.9763,2.941626 4.49238,4.383497 1.12818,1.078973 2.2907,2.109115 3.27465,3.325222 0.9274,0.998728 1.72125,2.104325 2.46249,3.244702 0.73216,1.090654 1.38459,2.214229 1.89799,3.422744 0.32638,1.079444 0.43482,2.212177 0.52226,3.33317 0.11575,1.240859 -0.32117,2.33711 -0.75136,3.468432 -1.06051,2.051524 -3.09864,5.543824 2.12407,-3.608996 0.11155,-0.195576 -0.22541,0.38988 -0.34364,0.581486 -0.35967,0.582769 -0.32535,0.512033 -0.72709,1.043461 -0.60537,0.80202 -1.27881,1.536295 -2.05875,2.169212 -0.3288,0.257873 -0.68145,0.481829 -1.03322,0.706186 0,0 -2.69051,6.092255 -2.69051,6.092255 v 0 c 0.36986,-0.22169 0.74055,-0.44255 1.09554,-0.68779 0.85053,-0.60842 1.61838,-1.30865 2.22812,-2.16592 0.4512,-0.51923 0.83148,-1.02331 1.17587,-1.62027 1.44975,-2.512798 3.10602,-4.981904 4.26482,-7.667386 0.43692,-1.203011 0.72244,-2.408248 0.55341,-3.698783 -0.12967,-1.161126 -0.24884,-2.343337 -0.71868,-3.426562 -0.57012,-1.216364 -1.2408,-2.38004 -1.98575,-3.498274 -0.79128,-1.126692 -1.61799,-2.229512 -2.5266,-3.265122 -1.02633,-1.204926 -2.25101,-2.189968 -3.40642,-3.265618 -1.53652,-1.422021 -2.97861,-2.944611 -4.49966,-4.383725 -1.51352,-1.392983 -3.00353,-2.812945 -4.40892,-4.315394 -1.52592,-1.730204 -3.00447,-3.5012 -4.27025,-5.435359 -0.92771,-1.559255 -1.79989,-3.157335 -2.59095,-4.790323 -0.58957,-1.37104 -1.04093,-2.778467 -1.05495,-4.288799 -0.0245,-1.512901 0.22119,-2.964164 0.93431,-4.318176 0.92459,-2.089511 2.8101,-5.208043 -2.39162,3.862917 -0.12215,0.213133 0.26719,-0.412776 0.41283,-0.610631 0.1449,-0.196796 0.29961,-0.386311 0.45803,-0.572355 0.15021,-0.176427 0.31163,-0.342977 0.46742,-0.514471 0.84236,-0.746837 1.79256,-1.298039 2.82901,-1.739772 0.94762,-0.399331 1.93079,-0.783778 2.97537,-0.779144 0,0 3.21122,-5.914318 3.21122,-5.914318 z" />
    <path
       style="fill:#1018b3;fill-opacity:1;stroke-width:0.449844"
       id="path13057-4-6"
       d="m 19.883498,-11.960621 c -1.17884,-0.0741 -2.31534,0.300268 -3.40838,0.697565 -1.10029,0.406522 -2.11138,0.975428 -3.03642,1.6916096 -2.60738,2.444867 -4.2358394,5.7646196 -5.5987585,9.04229948 C 7.1220898,0.83796143 7.0476698,2.4175375 7.1766798,3.9271116 c 0.0455,1.5711761 0.5920697,3.0355452 1.2359191,4.4475486 0.8028997,1.6354848 1.7504691,3.1866138 2.7657591,4.6969258 1.32309,1.943155 2.78207,3.767507 4.32248,5.538708 1.42295,1.516398 2.93073,2.955357 4.46119,4.36302 1.51486,1.443474 2.9763,2.941626 4.49238,4.383497 1.12818,1.078973 2.2907,2.109115 3.27465,3.325222 0.9274,0.998728 1.72125,2.104325 2.46249,3.244702 0.73216,1.090654 1.38459,2.214229 1.89799,3.422744 0.32638,1.079444 0.43482,2.212177 0.52226,3.33317 0.11575,1.240859 -0.32117,2.33711 -0.75136,3.468432 -1.06051,2.051524 -3.09864,5.543826 2.12407,-3.608996 0.11155,-0.195576 -0.22541,0.38988 -0.34364,0.581486 -0.35967,0.582769 -0.32535,0.512033 -0.72709,1.043461 -0.60537,0.80202 -1.27881,1.536295 -2.05875,2.169212 -0.3288,0.257873 -0.68145,0.481829 -1.03322,0.706186 0,0 -2.69051,6.092257 -2.69051,6.092257 v 0 c 0.36986,-0.22169 0.74055,-0.44255 1.09554,-0.68779 0.85053,-0.60842 1.61838,-1.30865 2.22812,-2.16592 0.4512,-0.51923 0.83148,-1.023312 1.17587,-1.620272 1.44975,-2.512798 3.10602,-4.981904 4.26482,-7.667386 0.43692,-1.203011 0.72244,-2.408248 0.55341,-3.698783 -0.12967,-1.161126 -0.24884,-2.343337 -0.71868,-3.426562 -0.57012,-1.216364 -1.2408,-2.38004 -1.98575,-3.498274 -0.79128,-1.126692 -1.61799,-2.229512 -2.5266,-3.265122 -1.02633,-1.204926 -2.25101,-2.189968 -3.40642,-3.265618 -1.53652,-1.422021 -2.97861,-2.944611 -4.49966,-4.383725 -1.51352,-1.392983 -3.00353,-2.812945 -4.40892,-4.315394 -1.52592,-1.730204 -3.00447,-3.5011997 -4.27025,-5.4353575 -0.92771,-1.5592541 -1.79989,-3.1573332 -2.59095,-4.7903203 -0.58957,-1.3710394 -1.04093,-2.77846544 -1.05495,-4.2887965 -0.0245,-1.5129001 0.22119,-2.9641622 0.93431,-4.3181736 0.92459,-2.0895105 2.8101,-5.2080431 -2.3916197,3.8629149 -0.1221497,0.2131327 0.26719,-0.4127757 0.41283,-0.6106307 0.1448997,-0.196796 0.2996097,-0.3863107 0.4580297,-0.5723547 0.15021,-0.176427 0.31163,-0.3429767 0.46742,-0.5144707 0.84236,-0.7468367 1.79256,-1.2980381 2.82901,-1.7397711 0.94762,-0.3993307 1.93079,-0.7837774 2.97537,-0.7791434 0,0 3.21122,-5.9143184 3.21122,-5.9143184 z" />
    <path
       style="fill:#1018b3;fill-opacity:1;stroke-width:0.449844"
       id="path13057-4-8"
       d="m 431.48235,7.4452345 c -1.17884,-0.07408 -2.31536,0.300272 -3.4084,0.6975647 -1.10029,0.4065227 -2.11138,0.9754274 -3.03643,1.6916081 -2.60736,2.4448657 -4.23582,5.7646187 -5.59873,9.0423027 -0.71784,1.367107 -0.79229,2.946684 -0.66326,4.456261 0.0454,1.571178 0.59207,3.035549 1.23591,4.447558 0.8029,1.635482 1.75048,3.186614 2.76577,4.696922 1.3231,1.943157 2.78207,3.767506 4.32247,5.538709 1.42294,1.516397 2.93072,2.955355 4.4612,4.363019 1.51484,1.443477 2.97629,2.941625 4.49237,4.383496 1.12819,1.078973 2.29071,2.109115 3.27465,3.325226 0.92741,0.998726 1.72125,2.104319 2.4625,3.244701 0.73214,1.090653 1.38458,2.214229 1.89796,3.42274 0.3264,1.079449 0.43482,2.21218 0.52229,3.333173 0.11574,1.240859 -0.32118,2.337109 -0.75138,3.468433 -1.06051,2.051521 -3.09862,5.543821 2.12409,-3.608996 0.11154,-0.195576 -0.22541,0.389878 -0.34366,0.581485 -0.35965,0.58277 -0.32534,0.512033 -0.72709,1.043462 -0.60535,0.80202 -1.2788,1.536291 -2.05874,2.169212 -0.32878,0.257872 -0.68143,0.481829 -1.03322,0.706185 0,0 -2.69048,6.092251 -2.69048,6.092251 v 0 c 0.36983,-0.221686 0.7405,-0.442551 1.09551,-0.687788 0.85054,-0.608413 1.61839,-1.308648 2.22812,-2.16592 0.45121,-0.519225 0.83146,-1.023305 1.17587,-1.620266 1.44977,-2.512799 3.10604,-4.981906 4.26481,-7.667388 0.43694,-1.203011 0.72244,-2.40825 0.55342,-3.698781 -0.12966,-1.16113 -0.24883,-2.343341 -0.71867,-3.426565 -0.57013,-1.216364 -1.24081,-2.380038 -1.98576,-3.498272 -0.79126,-1.126692 -1.61799,-2.229514 -2.52661,-3.265123 -1.02631,-1.204927 -2.251,-2.189967 -3.40641,-3.265621 -1.53651,-1.422019 -2.9786,-2.944607 -4.49965,-4.38372 -1.51354,-1.392986 -3.00353,-2.812945 -4.40894,-4.315395 -1.52591,-1.730206 -3.00444,-3.501201 -4.27023,-5.435361 -0.92772,-1.559256 -1.7999,-3.157334 -2.59095,-4.790326 -0.58958,-1.371039 -1.04095,-2.778468 -1.05497,-4.2888 -0.0245,-1.512899 0.2212,-2.964162 0.93433,-4.318175 0.92457,-2.089511 2.81008,-5.2080411 -2.39165,3.862915 -0.12214,0.213136 0.2672,-0.412773 0.41285,-0.610631 0.1449,-0.196789 0.29961,-0.386308 0.45805,-0.572355 0.1502,-0.176423 0.31162,-0.342974 0.46741,-0.51447 0.84236,-0.746836 1.79255,-1.298037 2.829,-1.739772 0.94762,-0.39933 1.93079,-0.783778 2.97537,-0.779144 0,0 3.21121,-5.9143145 3.21121,-5.9143145 z" />
    <text
       xml:space="preserve"
       style="font-style:normal;font-weight:normal;font-size:49.8717px;line-height:1.25;font-family:sans-serif;fill:#1018b3;fill-opacity:1;stroke:none;stroke-width:0.584434"
       x="89.450775"
       y="148.60254"
       id="text14738"
       transform="rotate(-30)"><tspan
         sodipodi:role="line"
         id="tspan14736"
         style="font-style:normal;font-variant:normal;font-weight:bold;font-stretch:normal;font-size:49.8717px;font-family:sans-serif;-inkscape-font-specification:'sans-serif Bold';fill:#1018b3;fill-opacity:1;stroke-width:0.584434"
         x="89.450775"
         y="148.60254">+</tspan></text>
    <text
       xml:space="preserve"
       style="font-style:normal;font-weight:normal;font-size:49.8717px;line-height:1.25;font-family:sans-serif;fill:#1018b3;fill-opacity:1;stroke:none;stroke-width:0.584434"
       x="14.181082"
       y="78.697144"
       id="text14738-0"
       transform="rotate(-30)"><tspan
         sodipodi:role="line"
         id="tspan14736-4"
         style="font-style:normal;font-variant:normal;font-weight:bold;font-stretch:normal;font-size:49.8717px;font-family:sans-serif;-inkscape-font-specification:'sans-serif Bold';fill:#1018b3;fill-opacity:1;stroke-width:0.584434"
         x="14.181082"
         y="78.697144">+</tspan></text>
    <text
       xml:space="preserve"
       style="font-style:normal;font-weight:normal;font-size:49.8717px;line-height:1.25;font-family:sans-serif;fill:#1018b3;fill-opacity:1;stroke:none;stroke-width:0.584434"
       x="365.97906"
       y="256.72705"
       id="text14738-1"
       transform="rotate(-30)"><tspan
         sodipodi:role="line"
         id="tspan14736-9"
         style="font-style:normal;font-variant:normal;font-weight:bold;font-stretch:normal;font-size:49.8717px;font-family:sans-serif;-inkscape-font-specification:'sans-serif Bold';fill:#1018b3;fill-opacity:1;stroke-width:0.584434"
         x="365.97906"
         y="256.72705">+</tspan></text>
    <text
       xml:space="preserve"
       style="font-style:normal;font-weight:normal;font-size:49.8717px;line-height:1.25;font-family:sans-serif;fill:#1018b3;fill-opacity:1;stroke:none;stroke-width:0.584434"
       x="307.06058"
       y="250.01711"
       id="text14738-1-6"
       transform="rotate(-30)"><tspan
         sodipodi:role="line"
         id="tspan14736-9-2"
         style="font-style:normal;font-variant:normal;font-weight:bold;font-stretch:normal;font-size:49.8717px;font-family:sans-serif;-inkscape-font-specification:'sans-serif Bold';fill:#1018b3;fill-opacity:1;stroke-width:0.584434"
         x="307.06058"
         y="250.01711">+</tspan></text>
    <text
       xml:space="preserve"
       style="font-style:normal;font-weight:normal;font-size:49.8717px;line-height:1.25;font-family:sans-serif;fill:#1018b3;fill-opacity:1;stroke:none;stroke-width:0.584434"
       x="316.98123"
       y="195.62555"
       id="text14738-1-3"
       transform="rotate(-30)"><tspan
         sodipodi:role="line"
         id="tspan14736-9-6"
         style="font-style:normal;font-variant:normal;font-weight:bold;font-stretch:normal;font-size:49.8717px;font-family:sans-serif;-inkscape-font-specification:'sans-serif Bold';fill:#1018b3;fill-opacity:1;stroke-width:0.584434"
         x="316.98123"
         y="195.62555">+</tspan></text>
    <text
       xml:space="preserve"
       style="font-style:normal;font-weight:normal;font-size:49.8717px;line-height:1.25;font-family:sans-serif;fill:#1018b3;fill-opacity:1;stroke:none;stroke-width:0.584434"
       x="168.56845"
       y="115.89068"
       id="text14738-1-3-1"
       transform="rotate(-30)"><tspan
         sodipodi:role="line"
         id="tspan14736-9-6-6"
         style="font-style:normal;font-variant:normal;font-weight:bold;font-stretch:normal;font-size:49.8717px;font-family:sans-serif;-inkscape-font-specification:'sans-serif Bold';fill:#1018b3;fill-opacity:1;stroke-width:0.584434"
         x="168.56845"
         y="115.89068">+</tspan></text>
    <text
       xml:space="preserve"
       style="font-style:normal;font-weight:normal;font-size:49.8717px;line-height:1.25;font-family:sans-serif;fill:#1018b3;fill-opacity:1;stroke:none;stroke-width:0.584434"
       x="55.988144"
       y="101.56447"
       id="text19956"
       transform="rotate(-30)"><tspan
         sodipodi:role="line"
         id="tspan19954"
         style="font-style:normal;font-variant:normal;font-weight:bold;font-stretch:normal;font-size:49.8717px;font-family:sans-serif;-inkscape-font-specification:'sans-serif Bold';fill:#1018b3;fill-opacity:1;stroke-width:0.584434"
         x="55.988144"
         y="101.56447">-</tspan></text>
    <text
       xml:space="preserve"
       style="font-style:normal;font-weight:normal;font-size:49.8717px;line-height:1.25;font-family:sans-serif;fill:#1018b3;fill-opacity:1;stroke:none;stroke-width:0.584434"
       x="118.2134"
       y="110.58968"
       id="text19956-1-9-0"
       transform="rotate(-30)"><tspan
         sodipodi:role="line"
         id="tspan19954-1-1-86"
         style="font-style:normal;font-variant:normal;font-weight:bold;font-stretch:normal;font-size:49.8717px;font-family:sans-serif;-inkscape-font-specification:'sans-serif Bold';fill:#1018b3;fill-opacity:1;stroke-width:0.584434"
         x="118.2134"
         y="110.58968">=</tspan></text>
    <text
       xml:space="preserve"
       style="font-style:normal;font-weight:normal;font-size:49.8717px;line-height:1.25;font-family:sans-serif;fill:#1018b3;fill-opacity:1;stroke:none;stroke-width:0.584434"
       x="-48.430679"
       y="52.194637"
       id="text19956-1-9-0-6"
       transform="rotate(-30)"><tspan
         sodipodi:role="line"
         id="tspan19954-1-1-86-6"
         style="font-style:normal;font-variant:normal;font-weight:bold;font-stretch:normal;font-size:49.8717px;font-family:sans-serif;-inkscape-font-specification:'sans-serif Bold';fill:#1018b3;fill-opacity:1;stroke-width:0.584434"
         x="-48.430679"
         y="52.194637">=</tspan></text>
    <text
       xml:space="preserve"
       style="font-style:normal;font-weight:normal;font-size:49.8717px;line-height:1.25;font-family:sans-serif;fill:#1018b3;fill-opacity:1;stroke:none;stroke-width:0.584434"
       x="187.87363"
       y="157.37827"
       id="text19956-1-9-0-9"
       transform="rotate(-30)"><tspan
         sodipodi:role="line"
         id="tspan19954-1-1-86-7"
         style="font-style:normal;font-variant:normal;font-weight:bold;font-stretch:normal;font-size:49.8717px;font-family:sans-serif;-inkscape-font-specification:'sans-serif Bold';fill:#1018b3;fill-opacity:1;stroke-width:0.584434"
         x="187.87363"
         y="157.37827">=</tspan></text>
    <text
       xml:space="preserve"
       style="font-style:normal;font-weight:normal;font-size:49.8717px;line-height:1.25;font-family:sans-serif;fill:#1018b3;fill-opacity:1;stroke:none;stroke-width:0.584434"
       x="269.40521"
       y="204.41608"
       id="text19956-1-9-0-9-6"
       transform="rotate(-30)"><tspan
         sodipodi:role="line"
         id="tspan19954-1-1-86-7-8"
         style="font-style:normal;font-variant:normal;font-weight:bold;font-stretch:normal;font-size:49.8717px;font-family:sans-serif;-inkscape-font-specification:'sans-serif Bold';fill:#1018b3;fill-opacity:1;stroke-width:0.584434"
         x="269.40521"
         y="204.41608">=</tspan></text>
    <text
       xml:space="preserve"
       style="font-style:normal;font-weight:normal;font-size:49.8717px;line-height:1.25;font-family:sans-serif;fill:#1018b3;fill-opacity:1;stroke:none;stroke-width:0.584434"
       x="55.634342"
       y="59.592518"
       id="text19956-1-9-0-9-6-1"
       transform="rotate(-30)"><tspan
         sodipodi:role="line"
         id="tspan19954-1-1-86-7-8-7"
         style="font-style:normal;font-variant:normal;font-weight:bold;font-stretch:normal;font-size:49.8717px;font-family:sans-serif;-inkscape-font-specification:'sans-serif Bold';fill:#1018b3;fill-opacity:1;stroke-width:0.584434"
         x="55.634342"
         y="59.592518">=</tspan></text>
    <text
       xml:space="preserve"
       style="font-style:normal;font-weight:normal;font-size:49.8717px;line-height:1.25;font-family:sans-serif;fill:#1018b3;fill-opacity:1;stroke:none;stroke-width:0.584434"
       x="422.02679"
       y="288.14374"
       id="text19956-1-9-0-9-6-7"
       transform="rotate(-30)"><tspan
         sodipodi:role="line"
         id="tspan19954-1-1-86-7-8-8"
         style="font-style:normal;font-variant:normal;font-weight:bold;font-stretch:normal;font-size:49.8717px;font-family:sans-serif;-inkscape-font-specification:'sans-serif Bold';fill:#1018b3;fill-opacity:1;stroke-width:0.584434"
         x="422.02679"
         y="288.14374">=</tspan></text>
    <text
       xml:space="preserve"
       style="font-style:normal;font-weight:normal;font-size:49.8717px;line-height:1.25;font-family:sans-serif;fill:#1018b3;fill-opacity:1;stroke:none;stroke-width:0.584434"
       x="274.89777"
       y="234.05597"
       id="text19956-1"
       transform="rotate(-30)"><tspan
         sodipodi:role="line"
         id="tspan19954-1"
         style="font-style:normal;font-variant:normal;font-weight:bold;font-stretch:normal;font-size:49.8717px;font-family:sans-serif;-inkscape-font-specification:'sans-serif Bold';fill:#1018b3;fill-opacity:1;stroke-width:0.584434"
         x="274.89777"
         y="234.05597">-</tspan></text>
    <text
       xml:space="preserve"
       style="font-style:normal;font-weight:normal;font-size:49.8717px;line-height:1.25;font-family:sans-serif;fill:#1018b3;fill-opacity:1;stroke:none;stroke-width:0.584434"
       x="417.9353"
       y="252.06189"
       id="text19956-1-2"
       transform="rotate(-30)"><tspan
         sodipodi:role="line"
         id="tspan19954-1-6"
         style="font-style:normal;font-variant:normal;font-weight:bold;font-stretch:normal;font-size:49.8717px;font-family:sans-serif;-inkscape-font-specification:'sans-serif Bold';fill:#1018b3;fill-opacity:1;stroke-width:0.584434"
         x="417.9353"
         y="252.06189">-</tspan></text>
    <text
       xml:space="preserve"
       style="font-style:normal;font-weight:normal;font-size:49.8717px;line-height:1.25;font-family:sans-serif;fill:#1018b3;fill-opacity:1;stroke:none;stroke-width:0.584434"
       x="313.99365"
       y="220.96446"
       id="text19956-1-9"
       transform="rotate(-30)"><tspan
         sodipodi:role="line"
         id="tspan19954-1-1"
         style="font-style:normal;font-variant:normal;font-weight:bold;font-stretch:normal;font-size:49.8717px;font-family:sans-serif;-inkscape-font-specification:'sans-serif Bold';fill:#1018b3;fill-opacity:1;stroke-width:0.584434"
         x="313.99365"
         y="220.96446">-</tspan></text>
    <text
       xml:space="preserve"
       style="font-style:normal;font-weight:normal;font-size:49.8717px;line-height:1.25;font-family:sans-serif;fill:#1018b3;fill-opacity:1;stroke:none;stroke-width:0.584434"
       x="363.24707"
       y="218.26193"
       id="text19956-1-9-01"
       transform="rotate(-30)"><tspan
         sodipodi:role="line"
         id="tspan19954-1-1-1"
         style="font-style:normal;font-variant:normal;font-weight:bold;font-stretch:normal;font-size:49.8717px;font-family:sans-serif;-inkscape-font-specification:'sans-serif Bold';fill:#1018b3;fill-opacity:1;stroke-width:0.584434"
         x="363.24707"
         y="218.26193">-</tspan></text>
    <text
       xml:space="preserve"
       style="font-style:normal;font-weight:normal;font-size:49.8717px;line-height:1.25;font-family:sans-serif;fill:#1018b3;fill-opacity:1;stroke:none;stroke-width:0.584434"
       x="234.95551"
       y="176.3362"
       id="text19956-1-9-1"
       transform="rotate(-30)"><tspan
         sodipodi:role="line"
         id="tspan19954-1-1-8"
         style="font-style:normal;font-variant:normal;font-weight:bold;font-stretch:normal;font-size:49.8717px;font-family:sans-serif;-inkscape-font-specification:'sans-serif Bold';fill:#1018b3;fill-opacity:1;stroke-width:0.584434"
         x="234.95551"
         y="176.3362">-</tspan></text>
  </g>
</svg>
